<?xml version="1.0" standalone="no"?>
<!DOCTYPE svg PUBLIC "-//W3C//DTD SVG 20010904//EN"
 "http://www.w3.org/TR/2001/REC-SVG-20010904/DTD/svg10.dtd">
<svg version="1.0" xmlns="http://www.w3.org/2000/svg"
 width="512.000000pt" height="512.000000pt" viewBox="0 0 512.000000 512.000000"
 preserveAspectRatio="xMidYMid meet">
<metadata>
Created by potrace 1.14, written by Peter Selinger 2001-2017
</metadata>
<g transform="translate(0.000000,512.000000) scale(0.100000,-0.100000)"
fill="#000000" stroke="none">
<path d="M1765 4770 c-150 -45 -278 -151 -340 -282 -48 -100 -61 -174 -60
-333 l1 -135 -516 -1 c-283 0 -528 -3 -545 -5 -137 -20 -250 -119 -290 -256
-14 -49 -15 -199 -13 -1439 l3 -1384 28 -80 c86 -244 280 -421 543 -497 l79
-23 1905 0 1905 0 79 23 c265 77 456 252 543 498 l28 79 0 1410 0 1410 -29 57
c-39 77 -98 135 -176 172 l-65 31 -545 5 -545 5 -1 145 c-1 168 -13 228 -62
325 -44 85 -144 188 -222 229 -129 67 -106 66 -914 65 -674 -1 -736 -2 -791
-19z m1541 -324 c53 -24 93 -68 114 -121 7 -17 13 -91 14 -167 l3 -138 -877 0
-876 0 1 138 c1 123 4 143 25 186 23 48 86 103 133 118 12 3 335 6 717 7 l695
1 51 -24z m1478 -759 c16 -12 17 -39 14 -407 -4 -423 -3 -414 -60 -540 -69
-153 -205 -283 -361 -347 -114 -46 -170 -51 -678 -49 l-473 1 -2 140 c-1 77
-6 151 -12 165 -15 38 -61 79 -101 91 -24 7 -217 9 -572 7 l-535 -3 -37 -25
c-60 -41 -70 -74 -71 -237 l-1 -141 -478 0 c-510 1 -561 5 -674 50 -160 65
-313 218 -371 371 -10 29 -25 68 -32 87 -19 49 -27 814 -10 836 11 12 309 14
2224 14 1793 0 2216 -2 2230 -13z m-1882 -1269 c2 -7 4 -107 3 -223 l0 -210
-345 -2 -345 -1 1 216 c1 119 2 220 3 225 1 4 154 7 340 7 262 0 340 -3 343
-12z m-2524 -177 c121 -101 250 -159 457 -207 17 -4 259 -9 539 -10 279 -2
511 -6 514 -9 3 -3 7 -56 8 -118 2 -128 12 -159 71 -204 l36 -28 545 -2 c336
-1 555 3 571 9 14 5 37 19 49 31 46 43 55 74 56 199 l1 118 100 0 c55 1 276 1
490 1 420 1 468 5 613 49 84 26 193 82 271 138 35 26 72 53 82 61 19 13 19 1
19 -620 -1 -706 0 -692 -68 -793 -68 -100 -181 -172 -307 -195 -82 -15 -3647
-15 -3731 0 -59 11 -175 60 -204 86 -70 64 -105 107 -133 163 l-32 65 -3 652
c-1 359 0 653 3 653 4 0 27 -18 53 -39z"/>
</g>
</svg>
